<?xml version="1.0" standalone="no"?>
<!DOCTYPE svg PUBLIC "-//W3C//DTD SVG 20010904//EN"
 "http://www.w3.org/TR/2001/REC-SVG-20010904/DTD/svg10.dtd">
<svg version="1.0" xmlns="http://www.w3.org/2000/svg"
 width="512.000000pt" height="512.000000pt" viewBox="0 0 512.000000 512.000000"
 preserveAspectRatio="xMidYMid meet">

<g transform="translate(0.000000,512.000000) scale(0.100000,-0.100000)"
fill="#000000" stroke="none">
<path d="M2422 4951 c-49 -6 -70 -14 -90 -35 -37 -36 -37 -96 -1 -132 26 -25
27 -25 215 -28 169 -3 199 -6 283 -30 347 -98 618 -349 736 -679 114 -319 74
-663 -109 -947 -54 -83 -56 -99 -22 -225 13 -49 23 -91 21 -93 -1 -2 -42 8
-91 22 -119 35 -139 34 -213 -14 -207 -134 -403 -188 -649 -177 -207 8 -390
68 -556 182 -80 54 -94 55 -236 16 -57 -17 -107 -28 -109 -25 -2 2 10 57 27
123 18 65 32 128 32 141 0 12 -20 59 -45 104 -81 149 -121 279 -135 444 -21
242 47 497 185 697 60 85 65 129 22 172 -21 21 -37 28 -68 28 -36 0 -47 -6
-78 -41 -20 -23 -57 -77 -83 -120 -219 -372 -236 -828 -43 -1216 l44 -89 -51
-194 c-31 -121 -48 -204 -44 -220 7 -29 42 -64 73 -71 12 -3 103 17 202 45
l181 51 87 -50 c407 -233 885 -235 1284 -5 l77 44 163 -45 c98 -27 173 -43
187 -39 38 9 72 50 72 86 0 18 -18 103 -41 190 l-41 158 20 28 c69 98 151 309
177 457 19 114 19 325 0 439 -91 518 -500 933 -1016 1032 -95 18 -284 26 -367
16z"/>
<path d="M1900 4772 c-32 -33 -39 -76 -18 -115 18 -34 40 -46 85 -47 34 0 46
5 67 31 53 63 21 145 -61 156 -37 5 -45 2 -73 -25z"/>
<path d="M2305 4469 c-46 -22 -50 -42 -53 -271 l-4 -218 -208 0 c-223 0 -248
-4 -271 -48 -20 -36 -20 -458 0 -494 23 -44 48 -48 271 -48 l208 0 4 -217 c3
-233 7 -250 55 -272 15 -7 111 -11 253 -11 227 0 229 0 257 24 l28 24 3 226 3
226 219 0 c217 0 219 0 247 24 l28 24 0 247 0 247 -28 24 c-28 24 -30 24 -247
24 l-219 0 -3 226 -3 226 -28 24 c-28 24 -29 24 -260 23 -132 0 -241 -5 -252
-10z m347 -396 c3 -233 7 -250 55 -272 15 -7 106 -11 233 -11 l210 0 0 -105 0
-105 -210 0 c-127 0 -218 -4 -233 -11 -48 -22 -52 -39 -55 -271 l-4 -218 -98
0 -99 0 -3 226 -3 226 -28 24 c-28 24 -30 24 -248 24 l-219 0 0 105 0 105 219
0 c218 0 220 0 248 24 l28 24 3 226 3 226 99 0 98 0 4 -217z"/>
<path d="M525 2920 c-222 -29 -411 -186 -486 -400 -30 -88 -37 -233 -15 -321
34 -134 131 -284 222 -340 l36 -22 -33 -25 c-102 -77 -186 -199 -226 -327 -17
-55 -18 -106 -18 -662 l0 -603 28 -27 27 -28 2500 0 2500 0 27 28 28 27 0 603
c0 556 -1 607 -18 661 -40 128 -120 248 -210 315 l-46 34 50 38 c191 151 268
424 186 658 -144 409 -665 528 -973 221 -110 -109 -164 -234 -172 -391 -5
-113 11 -189 63 -294 38 -78 116 -172 171 -206 l36 -22 -33 -25 c-107 -80
-203 -225 -230 -347 l-12 -55 -191 0 c-221 0 -282 -11 -363 -66 -105 -72 -168
-216 -145 -332 6 -31 14 -67 18 -80 l6 -22 -692 0 -692 0 6 22 c4 13 12 49 18
80 23 116 -40 260 -145 332 -81 55 -142 66 -363 66 l-191 0 -12 54 c-27 120
-119 264 -214 335 l-45 33 57 48 c208 173 270 467 151 714 -106 221 -360 358
-605 326z m249 -233 c118 -59 190 -155 218 -291 32 -162 -69 -349 -230 -424
-50 -24 -69 -27 -162 -27 -99 0 -110 2 -171 32 -83 41 -150 111 -192 201 -27
59 -31 77 -31 152 1 144 68 267 184 338 82 49 133 62 227 59 71 -3 92 -8 157
-40z m3920 0 c118 -59 190 -155 218 -291 32 -162 -69 -349 -230 -424 -50 -24
-69 -27 -162 -27 -99 0 -110 2 -171 32 -83 41 -150 111 -192 201 -27 59 -31
77 -31 152 1 144 68 267 184 338 82 49 133 62 227 59 71 -3 92 -8 157 -40z
m-3972 -978 c161 -54 262 -183 278 -356 6 -73 11 -89 34 -111 l26 -27 273 -5
c241 -4 276 -7 300 -23 92 -60 88 -200 -5 -257 -31 -19 -51 -20 -428 -20 -377
0 -397 1 -428 20 -63 39 -72 67 -72 233 0 196 -17 237 -100 237 -83 0 -100
-38 -100 -222 0 -170 15 -240 66 -315 71 -103 183 -153 346 -153 l88 0 0 -175
0 -175 -400 0 -401 0 3 538 3 537 27 55 c95 192 299 284 490 219z m3920 0
c110 -37 192 -110 246 -219 l27 -55 3 -537 3 -538 -401 0 -400 0 0 175 0 175
88 0 c163 0 275 50 346 153 51 75 66 146 66 309 0 187 -18 228 -100 228 -84 0
-100 -37 -100 -232 0 -171 -9 -199 -72 -238 -31 -19 -51 -20 -428 -20 -377 0
-397 1 -428 20 -93 57 -97 197 -5 257 24 16 59 19 300 23 l273 5 26 27 c23 22
28 38 34 111 9 96 38 168 96 235 106 124 275 172 426 121z m-722 -1174 l0
-175 -1360 0 -1360 0 0 175 0 175 1360 0 1360 0 0 -175z"/>
</g>
</svg>
