<?xml version="1.0" standalone="no"?>
<!DOCTYPE svg PUBLIC "-//W3C//DTD SVG 20010904//EN"
 "http://www.w3.org/TR/2001/REC-SVG-20010904/DTD/svg10.dtd">
<svg version="1.0" xmlns="http://www.w3.org/2000/svg"
 width="512.000000pt" height="512.000000pt" viewBox="0 0 512.000000 512.000000"
 preserveAspectRatio="xMidYMid meet">

<g transform="translate(0.000000,512.000000) scale(0.100000,-0.100000)"
fill="#000000" stroke="none">
<path d="M1927 4770 c-20 -16 -408 -563 -584 -824 -36 -53 -42 -99 -19 -144
29 -56 112 -74 163 -36 16 12 149 195 298 407 l270 387 506 0 506 0 201 -287
200 -288 -753 -5 c-745 -5 -754 -5 -782 -26 -61 -45 -61 -143 0 -188 28 -21
33 -21 903 -24 796 -2 878 -1 910 14 71 34 84 113 31 190 -170 253 -564 808
-584 824 -25 20 -38 20 -633 20 -593 0 -608 0 -633 -20z"/>
<path d="M1674 3530 c-12 -4 -31 -21 -43 -36 -21 -26 -21 -31 -21 -541 0 -467
2 -516 17 -540 36 -54 15 -53 908 -53 884 0 865 -1 910 50 19 21 20 38 23 531
2 443 1 513 -13 539 -35 68 -135 79 -187 20 l-28 -30 0 -435 0 -435 -700 0
-700 0 0 425 c0 361 -2 430 -15 455 -26 50 -95 73 -151 50z"/>
<path d="M2478 3522 c-42 -26 -58 -69 -58 -161 l0 -81 -86 0 c-94 0 -132 -14
-155 -57 -30 -55 -5 -131 52 -160 13 -7 61 -13 107 -13 l82 0 0 -84 c0 -101
22 -143 85 -165 35 -12 45 -11 77 2 56 23 71 56 76 158 l4 89 80 0 c117 0 168
34 168 112 0 88 -42 119 -167 126 l-83 5 0 69 c0 79 -16 126 -55 156 -34 27
-89 28 -127 4z"/>
<path d="M1083 2979 c-17 -5 -42 -23 -53 -40 -19 -26 -22 -43 -21 -127 3 -285
109 -596 290 -852 53 -76 235 -266 291 -305 30 -21 138 -174 458 -654 231
-344 430 -635 442 -646 16 -14 36 -20 70 -20 34 0 55 6 70 20 13 11 210 301
440 645 362 543 424 631 471 667 81 63 189 176 269 283 77 103 184 309 224
430 58 178 95 471 66 539 -31 77 -137 88 -194 20 -21 -24 -26 -41 -26 -82 0
-146 -43 -352 -104 -496 -247 -585 -876 -914 -1491 -780 -582 126 -1007 620
-1042 1209 -3 58 -12 117 -20 132 -24 49 -83 73 -140 57z m1092 -1614 c240
-63 588 -58 809 10 27 8 51 13 54 11 4 -5 -470 -724 -478 -724 -5 0 -473 702
-479 720 -2 6 4 8 15 4 11 -3 46 -12 79 -21z"/>
</g>
</svg>
