<?xml version="1.0" standalone="no"?>
<!DOCTYPE svg PUBLIC "-//W3C//DTD SVG 20010904//EN"
 "http://www.w3.org/TR/2001/REC-SVG-20010904/DTD/svg10.dtd">
<svg version="1.0" xmlns="http://www.w3.org/2000/svg"
 width="512.000000pt" height="512.000000pt" viewBox="0 0 512.000000 512.000000"
 preserveAspectRatio="xMidYMid meet">

<g transform="translate(0.000000,512.000000) scale(0.100000,-0.100000)"
fill="#000000" stroke="none">
<path d="M1225 5110 c-11 -5 -146 -133 -300 -283 l-280 -274 0 -1468 0 -1467
24 -19 c32 -26 67 -24 96 6 l25 24 0 1411 0 1410 218 0 c197 0 220 2 249 20
65 39 68 52 71 287 l3 213 900 0 899 0 0 -404 c0 -446 2 -460 63 -525 65 -68
169 -90 252 -52 51 23 111 89 124 138 6 21 11 133 11 254 0 204 -1 218 -21
243 -25 31 -66 34 -100 7 -24 -19 -24 -22 -29 -250 -6 -259 -7 -265 -76 -265
-26 0 -42 7 -55 23 -18 22 -19 47 -19 427 l0 404 319 0 319 0 31 -26 31 -26 0
-572 c0 -380 4 -583 11 -604 19 -56 101 -64 128 -13 7 13 11 169 11 462 l0
442 72 -5 c65 -5 75 -9 100 -37 l28 -31 0 -2176 0 -2176 -29 -29 -29 -29
-1535 0 -1535 0 -31 26 c-29 25 -31 29 -31 100 l0 74 1408 2 c1351 3 1408 4
1442 22 49 26 88 64 113 111 l22 40 3 1458 2 1458 -24 24 c-30 30 -65 32 -97
6 l-24 -19 -5 -1457 -5 -1457 -23 -18 c-13 -11 -42 -22 -65 -25 -23 -3 -716
-5 -1540 -3 l-1499 3 -29 33 -29 32 0 379 c0 368 -1 379 -21 405 -28 36 -80
36 -108 0 -20 -26 -21 -38 -21 -390 0 -220 4 -383 11 -413 14 -65 56 -123 115
-157 40 -23 62 -29 135 -32 l87 -4 4 -87 c5 -100 32 -160 93 -207 75 -57 -2
-54 1650 -54 1647 0 1574 -2 1647 54 19 14 48 50 64 78 l29 53 3 2170 c2 1537
-1 2185 -9 2223 -13 65 -60 129 -119 162 -35 19 -63 25 -131 28 l-87 4 -4 87
c-5 100 -32 160 -93 207 -74 56 -15 54 -1459 53 -761 0 -1340 -4 -1351 -9z
m-45 -380 l0 -140 -142 0 -143 0 140 140 c77 77 141 140 142 140 2 0 3 -63 3
-140z"/>
<path d="M2253 4061 c-97 -25 -122 -78 -123 -253 l0 -127 -142 -3 c-129 -3
-146 -5 -174 -25 -54 -39 -64 -74 -64 -231 0 -128 2 -142 23 -172 46 -68 63
-74 217 -78 l138 -4 4 -138 c3 -153 10 -171 78 -217 30 -21 44 -23 173 -23
125 0 143 2 178 22 64 36 79 80 79 230 l0 126 138 4 c152 4 180 13 220 72 20
30 22 44 22 183 0 139 -2 152 -23 184 -38 58 -74 69 -224 69 l-132 0 -3 144
c-3 128 -5 148 -24 173 -41 55 -76 67 -209 70 -66 1 -135 -2 -152 -6z m237
-248 c1 -149 10 -188 54 -232 l36 -36 148 -5 147 -5 3 -107 3 -107 -143 -3
c-131 -3 -146 -5 -176 -26 -56 -40 -66 -71 -70 -224 l-4 -138 -103 0 -103 0
-4 144 c-3 157 -9 173 -72 220 -24 19 -45 21 -172 24 l-145 3 3 107 3 107 145
5 c130 4 148 7 176 27 50 36 64 85 64 228 l0 125 105 0 105 0 0 -107z"/>
<path d="M1195 2430 c-10 -11 -18 -34 -18 -50 0 -16 8 -39 18 -50 18 -19 30
-20 485 -20 440 0 468 1 483 18 10 10 17 35 17 55 0 69 12 67 -506 67 -449 0
-461 -1 -479 -20z"/>
<path d="M2510 2430 c-11 -11 -20 -33 -20 -50 0 -17 9 -39 20 -50 19 -19 33
-20 534 -20 l515 0 20 26 c26 34 26 54 0 88 l-20 26 -515 0 c-501 0 -515 -1
-534 -20z"/>
<path d="M1214 2038 c-52 -25 -51 -103 2 -127 35 -16 893 -16 928 0 51 23 50
105 0 128 -33 15 -899 14 -930 -1z"/>
<path d="M2517 2030 c-20 -16 -27 -31 -27 -55 0 -24 7 -39 27 -55 26 -20 31
-20 536 -18 l509 3 19 24 c10 13 19 33 19 46 0 13 -9 33 -19 46 l-19 24 -509
3 c-505 2 -510 2 -536 -18z"/>
<path d="M1195 1620 c-10 -11 -18 -34 -18 -50 0 -16 8 -39 18 -50 18 -19 30
-20 479 -20 520 0 506 -2 506 69 0 74 20 71 -502 71 -453 0 -465 -1 -483 -20z"/>
<path d="M2510 1620 c-11 -11 -20 -33 -20 -50 0 -17 9 -39 20 -50 19 -19 33
-20 534 -20 l515 0 20 26 c26 34 26 54 0 88 l-20 26 -515 0 c-501 0 -515 -1
-534 -20z"/>
<path d="M1212 1230 c-51 -21 -48 -105 4 -129 17 -8 160 -11 467 -11 390 0
445 2 465 16 47 33 45 100 -4 123 -31 14 -897 15 -932 1z"/>
<path d="M2516 1219 c-33 -26 -36 -77 -5 -105 20 -18 44 -19 536 -19 l515 0
19 24 c26 32 24 67 -6 96 l-24 25 -504 0 c-495 0 -505 0 -531 -21z"/>
</g>
</svg>
