<?xml version="1.0" standalone="no"?>
<!DOCTYPE svg PUBLIC "-//W3C//DTD SVG 20010904//EN"
 "http://www.w3.org/TR/2001/REC-SVG-20010904/DTD/svg10.dtd">
<svg version="1.0" xmlns="http://www.w3.org/2000/svg"
 width="512.000000pt" height="512.000000pt" viewBox="0 0 512.000000 512.000000"
 preserveAspectRatio="xMidYMid meet">

<g transform="translate(0.000000,512.000000) scale(0.100000,-0.100000)"
fill="#000000" stroke="none">
<path d="M879 5110 c-407 -48 -746 -353 -851 -767 -22 -83 -23 -109 -23 -438
0 -384 8 -465 65 -669 187 -664 749 -1172 1425 -1286 l100 -17 5 -719 c5 -659
7 -724 24 -774 69 -208 218 -356 421 -416 81 -24 229 -24 310 0 203 60 355
210 421 416 14 45 18 104 22 335 4 302 7 320 64 371 57 53 66 54 386 54 l300
0 17 -52 c83 -256 304 -457 575 -524 98 -24 267 -24 365 1 291 73 517 299 590
590 25 96 25 276 1 370 -74 289 -293 511 -578 587 -107 28 -279 30 -383 3
-267 -67 -487 -269 -570 -522 l-17 -51 -326 -4 c-363 -5 -373 -6 -507 -76 -92
-48 -189 -145 -237 -237 -67 -129 -70 -150 -77 -465 -5 -239 -9 -290 -23 -315
-78 -143 -284 -139 -359 7 -18 36 -19 65 -17 729 l3 692 105 18 c717 122 1305
692 1449 1405 34 168 44 332 38 631 -4 257 -6 285 -30 375 -96 363 -383 645
-739 727 -114 26 -226 35 -277 21 -140 -37 -194 -208 -99 -316 45 -51 80 -65
182 -74 255 -22 452 -173 538 -410 22 -64 23 -73 23 -420 0 -305 -3 -367 -18
-440 -121 -566 -541 -986 -1107 -1107 -120 -25 -420 -25 -540 0 -566 121 -986
541 -1107 1107 -15 73 -18 135 -18 440 0 347 1 356 23 420 86 237 283 388 538
410 102 9 137 23 182 74 73 84 64 198 -22 274 -57 50 -106 58 -247 42z m3604
-3342 c79 -37 160 -116 200 -197 30 -61 32 -72 32 -171 0 -93 -3 -111 -27
-163 -38 -80 -117 -160 -197 -200 -61 -30 -72 -32 -171 -32 -93 0 -111 3 -163
27 -80 38 -160 117 -200 197 -30 61 -32 72 -32 171 0 93 3 112 27 162 29 62
101 146 154 179 73 44 134 60 229 56 72 -2 102 -8 148 -29z"/>
<path d="M1308 4310 c-351 -55 -576 -406 -481 -750 36 -132 71 -179 327 -438
133 -134 268 -263 301 -287 206 -146 486 -147 689 -1 33 24 169 154 301 288
203 205 247 254 277 313 54 104 71 175 71 285 0 197 -89 373 -247 484 -204
145 -469 148 -678 10 l-68 -46 -68 46 c-122 81 -285 118 -424 96z m175 -406
c18 -9 71 -54 118 -100 92 -90 135 -114 199 -114 64 0 107 24 199 114 101 98
132 116 201 116 113 0 200 -87 200 -200 0 -28 -7 -65 -16 -83 -22 -44 -450
-474 -496 -498 -23 -11 -57 -19 -88 -19 -31 0 -65 8 -88 19 -46 24 -474 454
-496 498 -34 68 -13 177 46 229 59 54 156 71 221 38z"/>
</g>
</svg>
